<svg xmlns="http://www.w3.org/2000/svg" viewBox="0 0 32 32" width="32" height="32">
  <defs>
    <linearGradient id="grad1" x1="0%" y1="0%" x2="100%" y2="100%">
      <stop offset="0%" style="stop-color:#667eea;stop-opacity:1" />
      <stop offset="100%" style="stop-color:#764ba2;stop-opacity:1" />
    </linearGradient>
  </defs>
  
  <!-- Background circle -->
  <circle cx="16" cy="16" r="15" fill="url(#grad1)" stroke="#fff" stroke-width="1"/>
  
  <!-- Template/Code icon -->
  <g fill="white">
    <!-- Left bracket -->
    <path d="M9 8 L6 11 L6 12 L6 13 L9 16 L10 15 L8 13 L8 12 L8 11 L10 9 Z"/>
    <!-- Right bracket -->
    <path d="M23 8 L22 9 L24 11 L24 12 L24 13 L22 15 L23 16 L26 13 L26 12 L26 11 Z"/>
    <!-- Middle slash -->
    <path d="M14 7 L13 8 L18 17 L19 16 Z"/>
  </g>
  
  <!-- Small decorative dots -->
  <circle cx="12" cy="22" r="1.5" fill="white" opacity="0.8"/>
  <circle cx="16" cy="24" r="1" fill="white" opacity="0.6"/>
  <circle cx="20" cy="22" r="1.5" fill="white" opacity="0.8"/>
</svg>
