<svg width="1080" height="1080" viewBox="0 0 1080 1080" fill="none" xmlns="http://www.w3.org/2000/svg">
<rect width="1080" height="1080" fill="#1E1E1E"/>
<rect width="1080" height="1080" fill="black"/>
<ellipse cx="539.5" cy="477" rx="274.5" ry="274" fill="url(#paint0_linear_0_1)"/>
<ellipse cx="539.5" cy="515" rx="177.5" ry="256" fill="black"/>
<path d="M496.299 830.22L527.52 877.451V422.582L388.444 254.009L93.2621 203C92.5954 215.517 92.9801 218.3 97.0464 226.615C102.822 236.027 105.557 238.262 119.753 242.674L356.277 288.015L364.792 298.406L469.832 427.817L496.299 460.425V830.22Z" fill="url(#paint1_linear_0_1)"/>
<path d="M169.489 363.818C175.477 370.877 179.544 373.656 188.403 376.008L466.458 422.894L361.463 294.427L113.694 252.23C113.573 260.351 113.417 261.902 116.531 269.109C121.426 278.609 125.787 281.568 135.444 284.112L359.572 319.745L366.192 330.998L139.227 299.116C138.997 308.458 140.205 312.867 143.955 319.745C149.79 329.263 155.371 331.531 165.706 332.873L369.029 358.192L375.649 367.569L163.815 342.251C163.475 352.193 164.966 356.768 169.489 363.818Z" fill="url(#paint2_linear_0_1)"/>
<path d="M583.701 830.22L552.48 877.451V422.582L691.556 254.009L986.738 203C987.405 215.517 987.02 218.3 982.954 226.615C977.178 236.027 974.443 238.262 960.247 242.674L723.723 288.015L715.208 298.406L610.168 427.817L583.701 460.425V830.22Z" fill="url(#paint3_linear_0_1)"/>
<path d="M909.822 363.818C903.834 370.877 899.767 373.656 890.908 376.008L612.852 422.894L717.847 294.427L965.617 252.23C965.737 260.351 965.893 261.902 962.78 269.109C957.885 278.609 953.523 281.568 943.866 284.112L719.738 319.745L713.119 330.998L940.083 299.116C940.313 308.458 939.106 312.867 935.355 319.745C929.52 329.263 923.939 331.531 913.604 332.873L710.282 358.192L703.662 367.569L915.496 342.251C915.836 352.193 914.345 356.768 909.822 363.818Z" fill="url(#paint4_linear_0_1)"/>
<defs>
<linearGradient id="paint0_linear_0_1" x1="814" y1="586.108" x2="265.274" y2="367.205" gradientUnits="userSpaceOnUse">
<stop stop-color="#084F5E"/>
<stop offset="1" stop-color="#11A5C4"/>
</linearGradient>
<linearGradient id="paint1_linear_0_1" x1="440.355" y1="394.756" x2="959.949" y2="325.3" gradientUnits="userSpaceOnUse">
<stop stop-color="#FF9A14"/>
<stop offset="1" stop-color="#C23A00"/>
</linearGradient>
<linearGradient id="paint2_linear_0_1" x1="290.561" y1="283.175" x2="290.561" y2="397.576" gradientUnits="userSpaceOnUse">
<stop stop-color="#FF9A14"/>
<stop offset="1" stop-color="#BF4703"/>
</linearGradient>
<linearGradient id="paint3_linear_0_1" x1="639.645" y1="394.756" x2="453.875" y2="406.552" gradientUnits="userSpaceOnUse">
<stop stop-color="#FF9A14"/>
<stop offset="1" stop-color="#C23A00"/>
</linearGradient>
<linearGradient id="paint4_linear_0_1" x1="788.75" y1="283.175" x2="788.75" y2="397.576" gradientUnits="userSpaceOnUse">
<stop stop-color="#FF9A14"/>
<stop offset="1" stop-color="#BF4703"/>
</linearGradient>
</defs>
</svg>
